<svg width="80" height="80" viewBox="0 0 80 80" fill="none" xmlns="http://www.w3.org/2000/svg">
<path d="M80 40C80 62.0914 62.0914 80 40 80C17.9086 80 0 62.0914 0 40C0 17.9086 17.9086 0 40 0C62.0914 0 80 17.9086 80 40Z" fill="#1D2633"/>
<path d="M69.7136 50.2032C71.0644 50.2032 72.0252 51.516 71.5172 52.7676C66.4666 65.2132 54.2582 73.9899 39.9999 73.9899C25.7417 73.9899 13.5333 65.2132 8.48267 52.7676C7.9747 51.516 8.93552 50.2032 10.2863 50.2032H69.7136Z" fill="#EDEBDE"/>
<path d="M71.5172 27.2222C72.0252 28.4739 71.0644 29.7867 69.7136 29.7867H10.2863C8.93552 29.7867 7.97471 28.4739 8.48267 27.2222C13.5333 14.7767 25.7417 6 39.9999 6C54.2582 6 66.4665 14.7767 71.5172 27.2222Z" fill="#EDEBDE"/>
<path d="M33.9999 6.52774C35.9476 6.18095 37.9526 6 40 6C42.0473 6 44.0523 6.18095 45.9999 6.52773V29.7867H33.9999V6.52774Z" fill="#AC2828"/>
<path d="M46.0004 50.2032H33.9993C33.9741 55.4211 33.0234 60.5937 31.1909 65.4805L28.7185 72.0736C32.2486 73.3149 36.0454 73.9899 39.9999 73.9899C43.9543 73.9899 47.7511 73.3149 51.2812 72.0736L48.8088 65.4805C46.9763 60.5937 46.0256 55.4211 46.0004 50.2032Z" fill="#AC2828"/>
<path d="M46 6.52771C50.3408 7.3006 54.3967 8.89722 58 11.1502V29.7867H46V6.52771Z" fill="#306A9F"/>
<path d="M51.2813 72.0837C56.7387 70.1648 61.5589 66.8929 65.3391 62.6705L64.7492 62.2951C60.6056 59.6582 58.073 55.1148 58.0015 50.2134H46.0005C46.0257 55.4313 46.9764 60.6039 48.809 65.4907L51.2813 72.0837Z" fill="#306A9F"/>
<path d="M21.9999 11.1502C25.6032 8.89723 29.659 7.3006 33.9999 6.52771V29.7867H21.9999V11.1502Z" fill="#DEB038"/>
<path d="M21.9983 50.2134H33.9993C33.9742 55.409 33.0315 60.5597 31.2143 65.4281L28.7185 72.0837C23.261 70.1648 18.4409 66.8929 14.6606 62.6705L15.2505 62.2951C19.3941 59.6582 21.9268 55.1148 21.9983 50.2134Z" fill="#DEB038"/>
<path d="M15.4136 46.204C14.201 46.204 13.1016 45.9433 12.1156 45.422C11.141 44.8893 10.3703 44.1583 9.80362 43.229C9.24828 42.2883 8.97062 41.2287 8.97062 40.05C8.97062 38.8713 9.24828 37.8173 9.80362 36.888C10.3703 35.9473 11.141 35.2163 12.1156 34.695C13.1016 34.1623 14.2066 33.896 15.4306 33.896C16.462 33.896 17.3913 34.0773 18.2186 34.44C19.0573 34.8027 19.76 35.324 20.3266 36.004L18.5586 37.636C17.754 36.7067 16.7566 36.242 15.5666 36.242C14.83 36.242 14.1726 36.4063 13.5946 36.735C13.0166 37.0523 12.5633 37.5 12.2346 38.078C11.9173 38.656 11.7586 39.3133 11.7586 40.05C11.7586 40.7867 11.9173 41.444 12.2346 42.022C12.5633 42.6 13.0166 43.0533 13.5946 43.382C14.1726 43.6993 14.83 43.858 15.5666 43.858C16.7566 43.858 17.754 43.3877 18.5586 42.447L20.3266 44.079C19.76 44.7703 19.0573 45.2973 18.2186 45.66C17.38 46.0227 16.445 46.204 15.4136 46.204ZM27.5414 33.896C28.6407 33.896 29.5984 34.1113 30.4144 34.542C31.2304 34.9727 31.8651 35.6073 32.3184 36.446C32.7717 37.2847 32.9984 38.299 32.9984 39.489V46H30.2444V43.144H24.8044V46H22.0844V39.489C22.0844 38.299 22.3111 37.2847 22.7644 36.446C23.2177 35.6073 23.8524 34.9727 24.6684 34.542C25.4844 34.1113 26.4421 33.896 27.5414 33.896ZM30.2444 40.934V39.234C30.2444 38.248 30.0007 37.5057 29.5134 37.007C29.0261 36.497 28.3631 36.242 27.5244 36.242C26.6744 36.242 26.0057 36.497 25.5184 37.007C25.0424 37.5057 24.8044 38.248 24.8044 39.234V40.934H30.2444ZM43.2987 46L41.0037 42.685H40.8677H38.4707V46H35.7167V34.1H40.8677C41.9217 34.1 42.834 34.2757 43.6047 34.627C44.3867 34.9783 44.9873 35.477 45.4067 36.123C45.826 36.769 46.0357 37.534 46.0357 38.418C46.0357 39.302 45.8203 40.067 45.3897 40.713C44.9703 41.3477 44.3697 41.835 43.5877 42.175L46.2567 46H43.2987ZM43.2477 38.418C43.2477 37.7493 43.0323 37.2393 42.6017 36.888C42.171 36.5253 41.542 36.344 40.7147 36.344H38.4707V40.492H40.7147C41.542 40.492 42.171 40.3107 42.6017 39.948C43.0323 39.5853 43.2477 39.0753 43.2477 38.418ZM48.2176 34.1H53.6236C54.9156 34.1 56.0546 34.3493 57.0406 34.848C58.038 35.3353 58.8086 36.0267 59.3526 36.922C59.908 37.8173 60.1856 38.86 60.1856 40.05C60.1856 41.24 59.908 42.2827 59.3526 43.178C58.8086 44.0733 58.038 44.7703 57.0406 45.269C56.0546 45.7563 54.9156 46 53.6236 46H48.2176V34.1ZM53.4876 43.739C54.6776 43.739 55.624 43.4103 56.3266 42.753C57.0406 42.0843 57.3976 41.1833 57.3976 40.05C57.3976 38.9167 57.0406 38.0213 56.3266 37.364C55.624 36.6953 54.6776 36.361 53.4876 36.361H50.9716V43.739H53.4876ZM66.1726 46.204C65.2319 46.204 64.3196 46.0793 63.4356 45.83C62.5629 45.5693 61.8602 45.235 61.3276 44.827L62.2626 42.753C62.7726 43.127 63.3789 43.4273 64.0816 43.654C64.7842 43.8807 65.4869 43.994 66.1896 43.994C66.9716 43.994 67.5496 43.8807 67.9236 43.654C68.2976 43.416 68.4846 43.1043 68.4846 42.719C68.4846 42.4357 68.3712 42.2033 68.1446 42.022C67.9292 41.8293 67.6459 41.6763 67.2946 41.563C66.9546 41.4497 66.4899 41.325 65.9006 41.189C64.9939 40.9737 64.2516 40.7583 63.6736 40.543C63.0956 40.3277 62.5969 39.982 62.1776 39.506C61.7696 39.03 61.5656 38.3953 61.5656 37.602C61.5656 36.9107 61.7526 36.2873 62.1266 35.732C62.5006 35.1653 63.0616 34.7177 63.8096 34.389C64.5689 34.0603 65.4926 33.896 66.5806 33.896C67.3399 33.896 68.0822 33.9867 68.8076 34.168C69.5329 34.3493 70.1676 34.61 70.7116 34.95L69.8616 37.041C68.7622 36.4177 67.6629 36.106 66.5636 36.106C65.7929 36.106 65.2206 36.2307 64.8466 36.48C64.4839 36.7293 64.3026 37.058 64.3026 37.466C64.3026 37.874 64.5122 38.18 64.9316 38.384C65.3622 38.5767 66.0139 38.7693 66.8866 38.962C67.7932 39.1773 68.5356 39.3927 69.1136 39.608C69.6916 39.8233 70.1846 40.1633 70.5926 40.628C71.0119 41.0927 71.2216 41.7217 71.2216 42.515C71.2216 43.195 71.0289 43.8183 70.6436 44.385C70.2696 44.9403 69.7029 45.3823 68.9436 45.711C68.1842 46.0397 67.2606 46.204 66.1726 46.204Z" fill="#EDEBDE"/>
</svg>
