<svg width="20" height="20" viewBox="0 0 20 20" fill="none" xmlns="http://www.w3.org/2000/svg">
<g clip-path="url(#clip0_5617_38)">
<path d="M10.0003 1.66577C5.40533 1.66577 1.66699 5.40411 1.66699 9.99911C1.66699 14.5941 5.40533 18.3324 10.0003 18.3324C14.5953 18.3324 18.3337 14.5941 18.3337 9.99911C18.3337 5.40411 14.5953 1.66577 10.0003 1.66577ZM10.0003 16.6658C6.32449 16.6658 3.33366 13.6749 3.33366 9.99911C3.33366 6.32327 6.32449 3.33244 10.0003 3.33244C13.6762 3.33244 16.667 6.32327 16.667 9.99911C16.667 13.6749 13.6762 16.6658 10.0003 16.6658Z" fill="#0D99FF"/>
<path d="M10.8337 5.83423H9.16699V10.3459L11.9112 13.0901L13.0895 11.9117L10.8337 9.65589V5.83423Z" fill="#0D99FF"/>
</g>
<defs>
<clipPath id="clip0_5617_38">
<rect width="20" height="20" fill="white"/>
</clipPath>
</defs>
</svg>
