<svg width="24" height="24" viewBox="0 0 24 24" fill="none" xmlns="http://www.w3.org/2000/svg">
<path d="M11.02 11.51V1.70998C11.02 0.955572 11.8367 0.484075 12.49 0.861269C12.7932 1.03634 12.98 1.35986 12.98 1.70998V11.51C12.98 12.2644 12.1633 12.7359 11.51 12.3587C11.2068 12.1836 11.02 11.8601 11.02 11.51ZM18.4153 1.86923C17.7776 1.46616 16.9427 1.90458 16.9125 2.65838C16.8989 2.99823 17.0625 3.32086 17.3447 3.51073C20.1757 5.35681 21.8 8.2723 21.8 11.51C21.8 19.054 13.6333 23.7691 7.1 19.997C4.06787 18.2464 2.20001 15.0112 2.20001 11.51C2.20001 8.2723 3.82436 5.35681 6.65533 3.51073C7.28126 3.0896 7.21658 2.14882 6.53892 1.81731C6.23338 1.66785 5.8722 1.6875 5.58468 1.86923C2.18776 4.08403 0.240005 7.59733 0.240005 11.51C0.240005 20.5628 10.04 26.2209 17.88 21.6944C21.5186 19.5937 23.76 15.7114 23.76 11.51C23.76 7.59733 21.8123 4.08403 18.4153 1.86923Z" fill="white"/>
</svg>
